<svg width="48" height="48" fill="none" xmlns="http://www.w3.org/2000/svg"><circle cx="24" cy="24" r="23" fill="#fff" stroke="#E9EDF3" stroke-width="2"/><path d="M33.4 28.7a.23.23 0 00-.34 0c-.6.72-2.6 2.69-2.6 4.48A2.8 2.8 0 0033.23 36 2.8 2.8 0 0036 33.18c0-1.8-1.98-3.76-2.6-4.48z" stroke="#92A0B3" stroke-width="2" stroke-miterlimit="10"/><path d="M31.56 25.85L18.2 12.6a2.08 2.08 0 00-2.95 0l-.3.3a2.07 2.07 0 000 2.94l3.06 3.05 3.29-3.29-8.83 8.81a1.61 1.61 0 00.01 2.3L20.06 34a1.62 1.62 0 002.25 0c2.18-2.11 6.83-6.6 7.31-7.09.33-.33 1.05-.4 1.66-.4h.01a.38.38 0 00.27-.65v0z" stroke="#2D4665" stroke-width="2" stroke-miterlimit="10"/></svg>