<svg width="512" height="512" xmlns="http://www.w3.org/2000/svg">
  <g clip-path="url(#a)" fill="#000">
    <path
      d="M61.44 256c0-107.45 87.1-194.56 194.56-194.56 43.26 0 83.2 14.1 115.5 37.98a73.34 73.34 0 0 1 46.59-41.58A255.04 255.04 0 0 0 256 0C114.62 0 0 114.61 0 256c0 141.38 114.61 256 256 256 141.38 0 256-114.62 256-256 0-29.6-5.03-58.06-14.3-84.55a73.04 73.04 0 0 1-55 29.59 194.65 194.65 0 0 1 7.86 54.96c0 107.45-87.1 194.56-194.56 194.56-107.45 0-194.56-87.1-194.56-194.56Z"
    />
    <path
      d="M506.74 204.13a254.3 254.3 0 0 0-9.04-32.68 73.04 73.04 0 0 1-55 29.59 193.66 193.66 0 0 1 7.16 38.36 79.98 79.98 0 0 0 56.88-35.27ZM256 368c61.71 0 112-50.2 112-112 0-61.71-50.2-112-112-112s-112 50.29-112 112 50.29 112 112 112ZM424 160a56 56 0 1 0 0-112 56 56 0 0 0 0 112Z"
    />
  </g>
  <defs>
    <clipPath id="a"><path fill="#fff" d="M0 0h512v512H0z" /></clipPath>
  </defs>
</svg>
