<svg width="195" height="28" viewBox="0 0 195 28" fill="none" xmlns="http://www.w3.org/2000/svg">
<path d="M158.574 12.6313C157.817 11.2991 156.414 10.3601 154.344 10.3601C150.87 10.3601 149 13.1117 149 16.1909C149 19.2483 150.87 22 154.344 22C156.414 22 157.861 21.1046 158.641 19.6851V21.7379H160.155V6H158.574V12.6313ZM158.641 16.1909C158.641 18.615 157.193 20.6023 154.655 20.6023C152.117 20.6023 150.603 18.615 150.603 16.1909C150.603 13.7232 152.117 11.7577 154.655 11.7577C157.193 11.7577 158.641 13.7232 158.641 16.1909Z" fill="#B2BECD"/>
<path d="M167.406 22C170.991 22 173.195 19.2483 173.195 16.1909C173.195 13.1335 170.991 10.3601 167.406 10.3601C163.844 10.3601 161.64 13.1335 161.64 16.1909C161.64 19.2483 163.844 22 167.406 22ZM163.243 16.1909C163.243 13.6795 164.89 11.7577 167.406 11.7577C169.944 11.7577 171.592 13.6795 171.592 16.1909C171.592 18.6805 169.944 20.6023 167.406 20.6023C164.89 20.6023 163.243 18.6805 163.243 16.1909Z" fill="#B2BECD"/>
<path d="M174.268 16.1909C174.268 19.2265 176.405 22 179.857 22C182.929 22 184.71 19.9908 185.156 17.7852H183.553C183.085 19.5104 181.794 20.6023 179.857 20.6023C177.474 20.6023 175.871 18.746 175.871 16.1909C175.871 13.614 177.474 11.7577 179.857 11.7577C181.794 11.7577 183.085 12.8496 183.553 14.5749H185.156C184.71 12.3692 182.929 10.3601 179.857 10.3601C176.405 10.3601 174.268 13.1335 174.268 16.1909Z" fill="#B2BECD"/>
<path d="M190.48 22C193.553 22 195 20.4058 195 18.7242C195 14.0508 187.987 16.6496 187.987 13.5703C187.987 12.5657 188.855 11.714 190.614 11.714C192.417 11.714 193.263 12.6749 193.397 13.8761H194.978C194.844 12.3692 193.798 10.3601 190.658 10.3601C187.964 10.3601 186.45 11.9324 186.45 13.6358C186.45 18.2001 193.464 15.5795 193.464 18.7679C193.464 19.8817 192.395 20.646 190.48 20.646C188.521 20.646 187.541 19.6851 187.43 18.2656H185.827C185.96 20.2092 187.207 22 190.48 22Z" fill="#B2BECD"/>
<path d="M3.38338 14C3.38338 8.12369 8.18022 3.36 14.0974 3.36C16.4794 3.36 18.6786 4.13067 20.4581 5.43687C20.9248 4.34591 21.8654 3.50313 23.0233 3.16324C20.5934 1.18749 17.4841 0 14.0974 0C6.31163 0 0 6.26801 0 14C0 21.732 6.31163 28 14.0974 28C21.8832 28 28.1948 21.732 28.1948 14C28.1948 12.3818 27.9177 10.8251 27.4073 9.37599C26.7128 10.3084 25.62 10.9305 24.3785 10.9943C24.6601 11.9462 24.8115 12.9546 24.8115 14C24.8115 19.8763 20.0146 24.64 14.0974 24.64C8.18022 24.64 3.38338 19.8763 3.38338 14Z" fill="#4D8DFF"/>
<path d="M27.905 11.1635C27.7783 10.5524 27.6114 9.95559 27.4073 9.37598C26.7128 10.3084 25.6199 10.9305 24.3784 10.9943C24.5777 11.6676 24.7117 12.3692 24.7731 13.0921C26.0805 12.9325 27.2108 12.2039 27.905 11.1635Z" fill="#4D8DFF"/>
<path d="M14.0975 20.125C17.4958 20.125 20.2651 17.38 20.2651 14C20.2651 10.6252 17.5011 7.875 14.0975 7.875C10.694 7.875 7.9299 10.6252 7.9299 14C7.9299 17.3748 10.6992 20.125 14.0975 20.125Z" fill="#4D8DFF"/>
<path d="M23.3489 8.75C25.0521 8.75 26.4328 7.37887 26.4328 5.6875C26.4328 3.99613 25.0521 2.625 23.3489 2.625C21.6458 2.625 20.2651 3.99613 20.2651 5.6875C20.2651 7.37887 21.6458 8.75 23.3489 8.75Z" fill="#4D8DFF"/>
<path d="M36 21.748H38.8137V15.1786H45.5223V12.6538H38.8137V8.8708C38.8137 8.8708 43.5276 8.8708 44.5774 8.8708H45.9314V6.30407H43.8274C41.4547 6.30407 36 6.30407 36 6.30407V10.8294L36 13.2021L36 21.748Z" fill="white"/>
<path d="M52.6486 10.6614C52.6486 10.6614 52.3966 10.6404 52.2916 10.6404C50.4228 10.6404 49.5829 11.5223 49.184 12.1732V10.7454H46.4333V21.748H49.415V16.2677C49.415 14.252 50.3178 13.3911 52.0606 13.3911C52.3336 13.3911 52.6486 13.4541 52.6486 13.4541V10.6614Z" fill="white"/>
<path d="M61.2493 10.7454V12.0892C60.5564 11.0814 59.3176 10.4934 57.7638 10.4934C54.5722 10.4934 52.7034 13.0551 52.7034 16.2467C52.7034 19.4383 54.5722 22 57.7638 22C59.3176 22 60.5564 21.4121 61.2493 20.4042V21.748H64V10.7454H61.2493ZM61.1024 16.2467C61.1024 18.0315 60.0525 19.3753 58.3937 19.3753C56.7349 19.3753 55.685 18.0315 55.685 16.2467C55.685 14.4619 56.7349 13.1181 58.3937 13.1181C60.0525 13.1181 61.1024 14.4619 61.1024 16.2467Z" fill="white"/>
<path d="M75.3121 15.4908C75.3121 13.958 76.047 13.0551 77.4538 13.0551C78.7767 13.0551 79.2176 14 79.2176 15.2178V21.748H82.1992V14.8819C82.1992 12.3202 80.8554 10.4934 78.2097 10.4934C76.6349 10.4934 75.5221 10.9764 74.5562 12.0472C73.9263 11.0814 72.8554 10.4934 71.3646 10.4934C69.7898 10.4934 68.6979 11.1444 68.194 12.0892V10.7454H65.4433V21.748H68.425V15.4278C68.425 13.958 69.1809 13.0551 70.5667 13.0551C71.8895 13.0551 72.3305 14 72.3305 15.2178V21.748H75.3121V15.4908Z" fill="white"/>
<path d="M94.2276 17.1076C94.2276 17.1076 94.2696 16.7087 94.2696 16.2257C94.2696 12.9711 92.0649 10.4934 88.8103 10.4934C85.5557 10.4934 83.288 12.9711 83.288 16.2257C83.288 19.6063 85.5767 22 88.8313 22C91.372 22 93.3877 20.4672 94.0386 18.2415H91.036C90.6791 19.0394 89.8182 19.4383 88.9153 19.4383C87.4245 19.4383 86.4586 18.6194 86.2486 17.1076H94.2276ZM88.7893 12.8871C90.1751 12.8871 91.078 13.727 91.288 14.9659H86.2906C86.5426 13.706 87.4245 12.8871 88.7893 12.8871Z" fill="white"/>
<path d="M104.883 21.748H107.676L111.518 10.7454H108.495L106.269 18.0315L103.98 10.7454H101.293L99.025 17.9895L96.8203 10.7454H93.7337L97.5762 21.748H100.369L102.616 14.9449H102.658L104.883 21.748Z" fill="white"/>
<path d="M116.931 22C120.458 22 122.705 19.3753 122.705 16.2467C122.705 13.1181 120.458 10.4934 116.931 10.4934C113.403 10.4934 111.156 13.1181 111.156 16.2467C111.156 19.3753 113.403 22 116.931 22ZM114.138 16.2467C114.138 14.273 115.356 13.1181 116.931 13.1181C118.505 13.1181 119.723 14.273 119.723 16.2467C119.723 18.2205 118.505 19.3753 116.931 19.3753C115.356 19.3753 114.138 18.2205 114.138 16.2467Z" fill="white"/>
<path d="M130.122 10.6614C130.122 10.6614 129.87 10.6404 129.765 10.6404C127.897 10.6404 127.057 11.5223 126.658 12.1732V10.7454H123.907V21.748H126.889V16.2677C126.889 14.252 127.792 13.3911 129.534 13.3911C129.807 13.3911 130.122 13.4541 130.122 13.4541V10.6614Z" fill="white"/>
<path d="M134.092 6H130.942V21.748H134.092V16.0157L134.134 15.9738L137.304 21.748H140.979L137.115 15.7008L140.748 11.0814H137.241L134.134 15.5118L134.092 15.4698V6Z" fill="white"/>
</svg>
