<svg width="139" height="28" viewBox="0 0 139 28" fill="none" xmlns="http://www.w3.org/2000/svg">
<path d="M78.6432 16.5547C78.2574 17.5849 77.2948 18.1566 76.1053 18.1566C74.34 18.1566 72.9089 16.7359 72.9089 14.9835C72.9089 13.231 74.34 11.8104 76.1053 11.8104C77.2949 11.8104 78.2279 12.3142 78.6433 13.4124H81.9032C81.3633 10.5964 79.0048 8.78888 76.1053 8.78888C72.659 8.78888 69.8652 11.5623 69.8652 14.9835C69.8652 18.4047 72.659 21.1781 76.1053 21.1781C79.0048 21.1781 81.5112 19.1559 81.9032 16.5547H78.6432Z" fill="white"/>
<path d="M65.2182 9.10009H68.6124V20.959H65.2182V9.10009Z" fill="white"/>
<path d="M68.9539 6.23414C68.9539 7.35757 68.0365 8.26828 66.9048 8.26828C65.7731 8.26828 64.8557 7.35757 64.8557 6.23414C64.8557 5.11072 65.7731 4.2 66.9048 4.2C68.0365 4.2 68.9539 5.11072 68.9539 6.23414Z" fill="white"/>
<path d="M55.4959 10.5515C56.065 9.53133 57.3586 8.8349 59.2212 8.8349C62.2325 8.8349 63.8261 10.7378 63.8261 13.5628V20.9587H60.432V13.9159C60.432 12.5329 59.8111 11.5814 58.3106 11.5814C56.6652 11.5814 55.7546 12.5819 55.7546 14.1611V20.9489H52.3604V9.09974H55.4959V10.5515Z" fill="white"/>
<path fill-rule="evenodd" clip-rule="evenodd" d="M45.0223 18.1565C46.7875 18.1565 48.2185 16.736 48.2185 14.9837C48.2185 13.2313 46.7875 11.8108 45.0223 11.8108C43.2571 11.8108 41.8261 13.2313 41.8261 14.9837C41.8261 16.736 43.2571 18.1565 45.0223 18.1565ZM45.0223 21.178C48.4685 21.178 51.2622 18.4047 51.2622 14.9837C51.2622 11.5626 48.4685 8.78932 45.0223 8.78932C41.5761 8.78932 38.7824 11.5626 38.7824 14.9837C38.7824 18.4047 41.5761 21.178 45.0223 21.178Z" fill="white"/>
<path d="M34.1963 9.10009H37.5905V20.959H34.1963V9.10009Z" fill="white"/>
<path d="M37.932 6.23414C37.932 7.35757 37.0146 8.26828 35.8829 8.26828C34.7512 8.26828 33.8338 7.35757 33.8338 6.23414C33.8338 5.11072 34.7512 4.2 35.8829 4.2C37.0146 4.2 37.932 5.11072 37.932 6.23414Z" fill="white"/>
<path d="M3.38338 14C3.38338 8.12369 8.18022 3.36 14.0974 3.36C16.4794 3.36 18.6786 4.13067 20.4581 5.43687C20.9248 4.34591 21.8654 3.50313 23.0233 3.16324C20.5934 1.18749 17.4841 0 14.0974 0C6.31163 0 0 6.26801 0 14C0 21.732 6.31163 28 14.0974 28C21.8832 28 28.1948 21.732 28.1948 14C28.1948 12.3818 27.9177 10.8251 27.4073 9.37599C26.7128 10.3084 25.62 10.9305 24.3785 10.9943C24.6601 11.9462 24.8115 12.9546 24.8115 14C24.8115 19.8763 20.0146 24.64 14.0974 24.64C8.18022 24.64 3.38338 19.8763 3.38338 14Z" fill="white"/>
<path d="M27.905 11.1635C27.7783 10.5524 27.6115 9.95558 27.4073 9.37597C26.7128 10.3084 25.62 10.9305 24.3785 10.9943C24.5777 11.6676 24.7117 12.3692 24.7731 13.0921C26.0806 12.9325 27.2108 12.2039 27.905 11.1635Z" fill="white"/>
<path d="M14.0974 20.125C17.4957 20.125 20.265 17.38 20.265 14C20.265 10.6252 17.501 7.87501 14.0974 7.87501C10.6939 7.87501 7.9298 10.6252 7.9298 14C7.9298 17.3748 10.6991 20.125 14.0974 20.125Z" fill="white"/>
<path d="M23.3488 8.75C25.052 8.75 26.4327 7.37888 26.4327 5.68751C26.4327 3.99613 25.052 2.62501 23.3488 2.62501C21.6457 2.62501 20.265 3.99613 20.265 5.68751C20.265 7.37888 21.6457 8.75 23.3488 8.75Z" fill="white"/>
<path d="M93.525 21C97.69 21 100.002 18.518 100.002 14.965C100.002 11.412 97.69 8.93 93.525 8.93H89.428V21H93.525ZM97.826 14.965C97.826 17.464 96.432 19.096 93.457 19.096H91.485V10.834H93.457C96.432 10.834 97.826 12.466 97.826 14.965ZM103.724 14.965C103.724 12.364 105.424 10.647 107.787 10.647C110.15 10.647 111.85 12.364 111.85 14.965C111.85 17.566 110.15 19.283 107.787 19.283C105.424 19.283 103.724 17.566 103.724 14.965ZM101.548 14.965C101.548 18.552 104.115 21.255 107.787 21.255C111.459 21.255 114.026 18.552 114.026 14.965C114.026 11.378 111.459 8.675 107.787 8.675C104.115 8.675 101.548 11.378 101.548 14.965ZM115.56 14.948C115.56 18.671 118.076 21.238 121.595 21.238C124.587 21.238 126.899 19.453 127.392 16.58H125.199C124.791 18.28 123.414 19.266 121.595 19.266C119.181 19.266 117.736 17.549 117.736 14.948C117.736 12.347 119.181 10.647 121.595 10.647C123.414 10.647 124.791 11.633 125.199 13.333H127.392C126.899 10.46 124.587 8.675 121.595 8.675C118.076 8.675 115.56 11.242 115.56 14.948ZM133.347 19.385C131.715 19.385 130.848 18.518 130.763 17.226H128.723C128.791 19.198 130.032 21.238 133.245 21.238C136.135 21.238 138.039 19.81 138.039 17.617C138.039 12.789 131.239 14.846 131.239 12.194C131.239 11.123 132.106 10.528 133.517 10.528C135.064 10.528 135.863 11.48 135.88 12.67H137.903C137.852 10.409 136.356 8.675 133.517 8.675C130.831 8.675 129.199 10.324 129.199 12.245C129.199 17.073 135.948 14.761 135.948 17.702C135.948 18.79 134.996 19.385 133.347 19.385Z" fill="#92A0B3"/>
</svg>
