<svg width="22" height="25" viewBox="0 0 22 25" fill="none" xmlns="http://www.w3.org/2000/svg">
<path fill-rule="evenodd" clip-rule="evenodd" d="M0 24C0 23.4477 0.447715 23 1 23H21C21.5523 23 22 23.4477 22 24C22 24.5523 21.5523 25 21 25H1C0.447715 25 0 24.5523 0 24Z" fill="#78B8F8"/>
<path d="M11 0C11.5523 0 12 0.447715 12 1V16.1499L16.8804 11.2695C17.2758 10.8741 17.924 10.8854 18.3124 11.2877V11.2877C18.6912 11.6801 18.6909 12.3091 18.3053 12.6947L11.7071 19.2929C11.3166 19.6834 10.6834 19.6834 10.2929 19.2929L3.70155 12.7016C3.3141 12.3141 3.31411 11.6859 3.70158 11.2985V11.2985C4.08779 10.9123 4.71351 10.9109 5.10145 11.2953L10 16.1499V0.999999C10 0.447715 10.4477 0 11 0V0Z" fill="#3880FF"/>
</svg>
