<svg width="26" height="26" viewBox="0 0 26 26" fill="none" xmlns="http://www.w3.org/2000/svg">
<path d="M22.4091 17.703C22.3878 17.6769 22.361 17.6559 22.3305 17.6415C22.3001 17.6271 22.2668 17.6196 22.2332 17.6196C22.1995 17.6196 22.1662 17.6271 22.1358 17.6415C22.1053 17.6559 22.0785 17.6769 22.0572 17.703C21.4513 18.418 19.4605 20.3871 19.4605 22.1809C19.4605 23.7378 20.7011 25 22.2303 25C23.7594 25 25 23.7314 25 22.1809C25 20.3871 23.0208 18.418 22.4091 17.703Z" stroke="#9499A0" stroke-width="2" stroke-miterlimit="10"/>
<path d="M20.5569 14.846L7.20507 1.61054C7.01208 1.41702 6.78276 1.26347 6.53026 1.1587C6.27776 1.05393 6.00705 1 5.73365 1C5.46025 1 5.18954 1.05393 4.93704 1.1587C4.68454 1.26347 4.45522 1.41702 4.26223 1.61054L3.96506 1.90749C3.7714 2.10034 3.61775 2.32949 3.5129 2.58181C3.40806 2.83412 3.35409 3.10464 3.35409 3.37784C3.35409 3.65105 3.40806 3.92156 3.5129 4.17388C3.61775 4.42619 3.7714 4.65535 3.96506 4.8482L7.01696 7.89788L10.306 4.61121L1.47635 13.4218C1.32394 13.5733 1.2033 13.7536 1.12152 13.9523C1.03973 14.1509 0.998433 14.3639 1.00005 14.5786C1.00166 14.7934 1.04615 15.0058 1.13091 15.2032C1.21566 15.4005 1.33899 15.5791 1.49366 15.7282L9.06425 22.9935C9.36655 23.2827 9.76922 23.4437 10.1877 23.4426C10.6062 23.4415 11.0081 23.2785 11.3089 22.9877C13.49 20.8773 18.1351 16.3856 18.6198 15.9012C18.9545 15.5668 19.67 15.4918 20.2759 15.4918H20.2932C20.3681 15.4919 20.4413 15.4696 20.5036 15.4279C20.5658 15.3862 20.6141 15.3269 20.6424 15.2575C20.6707 15.1882 20.6777 15.1121 20.6625 15.0388C20.6472 14.9654 20.6105 14.8983 20.5569 14.846V14.846Z" stroke="#474F5A" stroke-width="2" stroke-miterlimit="10"/>
</svg>
