<svg width="139" height="28" viewBox="0 0 139 28" fill="none" xmlns="http://www.w3.org/2000/svg">
<path d="M78.6431 16.5544C78.2573 17.5846 77.2947 18.1563 76.1052 18.1563C74.3399 18.1563 72.9088 16.7356 72.9088 14.9832C72.9088 13.2307 74.3399 11.8101 76.1052 11.8101C77.2948 11.8101 78.2277 12.3139 78.6432 13.4121H81.9031C81.3632 10.5961 79.0047 8.78857 76.1052 8.78857C72.6589 8.78857 69.8651 11.562 69.8651 14.9832C69.8651 18.4044 72.6589 21.1778 76.1052 21.1778C79.0047 21.1778 81.511 19.1556 81.903 16.5544H78.6431Z" fill="black"/>
<path d="M65.2181 9.09979H68.6123V20.9587H65.2181V9.09979Z" fill="black"/>
<path d="M68.9538 6.23385C68.9538 7.35727 68.0364 8.26799 66.9047 8.26799C65.773 8.26799 64.8556 7.35727 64.8556 6.23385C64.8556 5.11042 65.773 4.19971 66.9047 4.19971C68.0364 4.19971 68.9538 5.11042 68.9538 6.23385Z" fill="black"/>
<path d="M55.4958 10.551C56.065 9.5309 57.3585 8.83447 59.2212 8.83447C62.2325 8.83447 63.8261 10.7374 63.8261 13.5624V20.9583H60.4319V13.9155C60.4319 12.5324 59.811 11.581 58.3105 11.581C56.6652 11.581 55.7545 12.5815 55.7545 14.1607V20.9485H52.3604V9.09931H55.4958V10.551Z" fill="black"/>
<path fill-rule="evenodd" clip-rule="evenodd" d="M45.0222 18.1563C46.7874 18.1563 48.2184 16.7357 48.2184 14.9834C48.2184 13.2311 46.7874 11.8105 45.0222 11.8105C43.257 11.8105 41.826 13.2311 41.826 14.9834C41.826 16.7357 43.257 18.1563 45.0222 18.1563ZM45.0222 21.1778C48.4684 21.1778 51.2621 18.4045 51.2621 14.9834C51.2621 11.5624 48.4684 8.78906 45.0222 8.78906C41.576 8.78906 38.7823 11.5624 38.7823 14.9834C38.7823 18.4045 41.576 21.1778 45.0222 21.1778Z" fill="black"/>
<path d="M34.1962 9.09979H37.5904V20.9587H34.1962V9.09979Z" fill="black"/>
<path d="M37.9319 6.23385C37.9319 7.35727 37.0145 8.26799 35.8828 8.26799C34.7511 8.26799 33.8337 7.35727 33.8337 6.23385C33.8337 5.11042 34.7511 4.19971 35.8828 4.19971C37.0145 4.19971 37.9319 5.11042 37.9319 6.23385Z" fill="black"/>
<path d="M3.38326 13.9995C3.38326 8.1232 8.1801 3.35951 14.0973 3.35951C16.4793 3.35951 18.6785 4.13018 20.458 5.43638C20.9247 4.34542 21.8653 3.50264 23.0231 3.16275C20.5932 1.187 17.484 -0.000488281 14.0973 -0.000488281C6.31151 -0.000488281 -0.00012207 6.26753 -0.00012207 13.9995C-0.00012207 21.7315 6.31151 27.9995 14.0973 27.9995C21.8831 27.9995 28.1947 21.7315 28.1947 13.9995C28.1947 12.3813 27.9176 10.8246 27.4072 9.3755C26.7127 10.3079 25.6199 10.93 24.3783 10.9938C24.66 11.9457 24.8113 12.9541 24.8113 13.9995C24.8113 19.8758 20.0145 24.6395 14.0973 24.6395C8.1801 24.6395 3.38326 19.8758 3.38326 13.9995Z" fill="black"/>
<path d="M27.9048 11.163C27.7781 10.5519 27.6113 9.9551 27.4071 9.37549C26.7127 10.3079 25.6198 10.93 24.3783 10.9938C24.5775 11.6671 24.7116 12.3687 24.7729 13.0916C26.0804 12.932 27.2106 12.2034 27.9048 11.163Z" fill="black"/>
<path d="M14.0973 20.1245C17.4955 20.1245 20.2649 17.3795 20.2649 13.9995C20.2649 10.6247 17.5008 7.87451 14.0973 7.87451C10.6937 7.87451 7.92965 10.6247 7.92965 13.9995C7.92965 17.3743 10.699 20.1245 14.0973 20.1245Z" fill="black"/>
<path d="M23.3487 8.74951C25.0518 8.74951 26.4325 7.37838 26.4325 5.68701C26.4325 3.99564 25.0518 2.62451 23.3487 2.62451C21.6456 2.62451 20.2649 3.99564 20.2649 5.68701C20.2649 7.37838 21.6456 8.74951 23.3487 8.74951Z" fill="black"/>
<path d="M93.5249 20.9995C97.6899 20.9995 100.002 18.5175 100.002 14.9645C100.002 11.4115 97.6899 8.92951 93.5249 8.92951H89.4279V20.9995H93.5249ZM97.8259 14.9645C97.8259 17.4635 96.4319 19.0955 93.4569 19.0955H91.4849V10.8335H93.4569C96.4319 10.8335 97.8259 12.4655 97.8259 14.9645ZM103.724 14.9645C103.724 12.3635 105.424 10.6465 107.787 10.6465C110.15 10.6465 111.85 12.3635 111.85 14.9645C111.85 17.5655 110.15 19.2825 107.787 19.2825C105.424 19.2825 103.724 17.5655 103.724 14.9645ZM101.548 14.9645C101.548 18.5515 104.115 21.2545 107.787 21.2545C111.459 21.2545 114.026 18.5515 114.026 14.9645C114.026 11.3775 111.459 8.67451 107.787 8.67451C104.115 8.67451 101.548 11.3775 101.548 14.9645ZM115.56 14.9475C115.56 18.6705 118.076 21.2375 121.595 21.2375C124.587 21.2375 126.899 19.4525 127.392 16.5795H125.199C124.791 18.2795 123.414 19.2655 121.595 19.2655C119.181 19.2655 117.736 17.5485 117.736 14.9475C117.736 12.3465 119.181 10.6465 121.595 10.6465C123.414 10.6465 124.791 11.6325 125.199 13.3325H127.392C126.899 10.4595 124.587 8.67451 121.595 8.67451C118.076 8.67451 115.56 11.2415 115.56 14.9475ZM133.347 19.3845C131.715 19.3845 130.848 18.5175 130.763 17.2255H128.723C128.791 19.1975 130.032 21.2375 133.245 21.2375C136.135 21.2375 138.039 19.8095 138.039 17.6165C138.039 12.7885 131.239 14.8455 131.239 12.1935C131.239 11.1225 132.106 10.5275 133.517 10.5275C135.064 10.5275 135.863 11.4795 135.88 12.6695H137.903C137.852 10.4085 136.356 8.67451 133.517 8.67451C130.831 8.67451 129.199 10.3235 129.199 12.2445C129.199 17.0725 135.948 14.7605 135.948 17.7015C135.948 18.7895 134.996 19.3845 133.347 19.3845Z" fill="#92A0B3"/>
</svg>
