<svg width="139" height="28" fill="none" xmlns="http://www.w3.org/2000/svg"><path d="M78.64 16.55c-.38 1.04-1.35 1.6-2.53 1.6a3.18 3.18 0 0 1-3.2-3.17 3.18 3.18 0 0 1 3.2-3.17c1.18 0 2.12.5 2.53 1.6h3.26a5.68 5.68 0 0 0-5.8-4.62 6.22 6.22 0 0 0-6.23 6.2c0 3.41 2.79 6.19 6.24 6.19 2.9 0 5.4-2.02 5.8-4.63h-3.27ZM65.22 9.1h3.4v11.86h-3.4V9.1ZM68.95 6.23c0 1.13-.91 2.04-2.05 2.04a2.04 2.04 0 0 1-2.04-2.04 2.04 2.04 0 0 1 4.1 0ZM55.5 10.55c.56-1.02 1.86-1.72 3.72-1.72 3.01 0 4.6 1.9 4.6 4.73v7.4h-3.39v-7.04c0-1.39-.62-2.34-2.12-2.34-1.64 0-2.56 1-2.56 2.58v6.79h-3.39V9.1h3.14v1.45Z" fill="#000"/><path fill-rule="evenodd" clip-rule="evenodd" d="M45.02 18.16c1.77 0 3.2-1.42 3.2-3.18a3.18 3.18 0 0 0-3.2-3.17 3.18 3.18 0 0 0-3.2 3.17 3.18 3.18 0 0 0 3.2 3.18Zm0 3.02a6.22 6.22 0 0 0 6.24-6.2c0-3.42-2.8-6.19-6.24-6.19a6.22 6.22 0 0 0-6.24 6.2c0 3.42 2.8 6.19 6.24 6.19Z" fill="#000"/><path d="M34.2 9.1h3.39v11.86h-3.4V9.1ZM37.93 6.23c0 1.13-.92 2.04-2.05 2.04a2.04 2.04 0 0 1-2.05-2.04c0-1.12.92-2.03 2.05-2.03s2.05.91 2.05 2.03ZM3.38 14c0-5.88 4.8-10.64 10.72-10.64 2.38 0 4.58.77 6.36 2.08a4.03 4.03 0 0 1 2.56-2.28A14.1 14.1 0 0 0 14.1 0C6.3 0 0 6.27 0 14s6.31 14 14.1 14A14.05 14.05 0 0 0 27.4 9.38a4.03 4.03 0 0 1-3.02 1.61A10.68 10.68 0 0 1 14.1 24.64 10.68 10.68 0 0 1 3.38 14Z" fill="#000"/><path d="M27.9 11.16c-.12-.6-.29-1.2-.5-1.78a4.03 4.03 0 0 1-3.02 1.61c.2.68.33 1.38.4 2.1a4.4 4.4 0 0 0 3.13-1.93ZM14.1 20.13c3.4 0 6.17-2.75 6.17-6.13a6.15 6.15 0 0 0-6.17-6.13A6.15 6.15 0 0 0 7.93 14a6.16 6.16 0 0 0 6.17 6.13ZM23.35 8.75c1.7 0 3.08-1.37 3.08-3.06 0-1.7-1.38-3.07-3.08-3.07a3.07 3.07 0 0 0-3.08 3.07c0 1.69 1.38 3.06 3.08 3.06Z" fill="#000"/><path d="M93.53 21c4.16 0 6.47-2.48 6.47-6.04 0-3.55-2.31-6.03-6.47-6.03h-4.1V21h4.1Zm4.3-6.04c0 2.5-1.4 4.14-4.37 4.14h-1.97v-8.27h1.97c2.97 0 4.37 1.64 4.37 4.13Zm5.9 0c0-2.6 1.7-4.31 4.06-4.31 2.36 0 4.06 1.71 4.06 4.31 0 2.6-1.7 4.32-4.06 4.32-2.37 0-4.07-1.71-4.07-4.32Zm-2.18 0a6.06 6.06 0 0 0 6.24 6.3c3.67 0 6.24-2.7 6.24-6.3a6.06 6.06 0 0 0-6.24-6.29 6.06 6.06 0 0 0-6.24 6.3Zm14.01-.01c0 3.72 2.52 6.29 6.03 6.29 3 0 5.3-1.79 5.8-4.66h-2.2c-.4 1.7-1.78 2.69-3.6 2.69-2.4 0-3.85-1.72-3.85-4.32 0-2.6 1.44-4.3 3.86-4.3 1.81 0 3.2.98 3.6 2.68h2.2c-.5-2.87-2.81-4.65-5.8-4.65-3.52 0-6.04 2.56-6.04 6.27Zm17.79 4.44c-1.63 0-2.5-.87-2.59-2.16h-2.04c.07 1.97 1.31 4 4.53 4 2.88 0 4.79-1.42 4.79-3.61 0-4.83-6.8-2.77-6.8-5.43 0-1.07.87-1.66 2.28-1.66 1.54 0 2.34.95 2.36 2.14h2.02c-.05-2.26-1.54-4-4.38-4-2.69 0-4.32 1.65-4.32 3.57 0 4.83 6.75 2.52 6.75 5.46 0 1.09-.95 1.69-2.6 1.69Z" fill="#92A0B3"/></svg>