<?xml version="1.0" encoding="UTF-8"?>
<svg width="512px" height="512px" viewBox="0 0 512 512" version="1.1" xmlns="http://www.w3.org/2000/svg" xmlns:xlink="http://www.w3.org/1999/xlink">
    <!-- Generator: Sketch 48.2 (47327) - http://www.bohemiancoding.com/sketch -->
    <title>Artboard</title>
    <desc>Created with Sketch.</desc>
    <defs></defs>
    <g id="Page-1" stroke="none" stroke-width="1" fill="none" fill-rule="evenodd">
        <circle id="Oval" fill="#FFFFFF" cx="256" cy="256" r="256"></circle>
        <g id="Artboard" fill="#020814" fill-rule="nonzero">
            <g id="icon" transform="translate(128.000000, 128.000000)">
                <path d="M211.751467,74.8509867 C226.4416,74.8509867 238.350933,62.9418667 238.350933,48.2510933 C238.350933,33.56032 226.4416,21.6510933 211.751467,21.6510933 C197.060267,21.6510933 185.150933,33.56032 185.150933,48.2510933 C185.150933,62.9418667 197.060267,74.8509867 211.751467,74.8509867 Z" id="Shape"></path>
                <path d="M244.500267,74.9499733 L243.399467,72.5000533 L241.6,74.5000533 C237.250133,79.4500267 231.700267,83.2500267 225.549867,85.5499733 L223.8496,86.2 L224.5504,87.8500267 C229.8496,100.6 232.5504,114.100267 232.5504,127.949867 C232.5504,185.6 185.650133,232.5504 127.949867,232.5504 C70.2500267,232.5504 23.4,185.650133 23.4,128 C23.4,70.3499733 70.3499733,23.4 128,23.4 C143.650133,23.4 158.749867,26.8 172.8,33.4999467 L174.450133,34.2999467 L175.149867,32.6500267 C177.700267,26.6500267 181.799467,21.2999467 186.9504,17.1499733 L189.0496,15.4500267 L186.6496,14.2 C168.4,4.8 148.6496,0 128,0 C57.4,0 0,57.4 0,128 C0,198.599467 57.4,256 128,256 C198.599467,256 256,198.599467 256,128 C256,109.549867 252.1504,91.6999467 244.500267,74.9499733 Z" id="Shape"></path>
                <path d="M129.950933,69.7010133 C96.2509867,68.60096 68.60096,96.2509867 69.7010133,129.950933 C70.7010133,160.501333 95.5010133,185.351467 126.0512,186.3008 C159.751467,187.400533 187.400533,159.751467 186.3008,126.0512 C185.301333,95.5010133 160.501333,70.7010133 129.950933,69.7010133 Z" id="Shape"></path>
            </g>
        </g>
    </g>
</svg>