<svg width="512" height="512" xmlns="http://www.w3.org/2000/svg"><g fill="none" fill-rule="evenodd"><circle fill="#FFF" cx="256" cy="256" r="256"/><g fill="#020814" fill-rule="nonzero"><path d="M339.751 202.851c14.69 0 26.6-11.91 26.6-26.6 0-14.69-11.91-26.6-26.6-26.6-14.69 0-26.6 11.91-26.6 26.6 0 14.69 11.91 26.6 26.6 26.6z"/><path d="M372.5 202.95l-1.1-2.45-1.8 2c-4.35 4.95-9.9 8.75-16.05 11.05l-1.7.65.7 1.65c5.3 12.75 8 26.25 8 40.1 0 57.65-46.9 104.6-104.6 104.6-57.7 0-104.55-46.9-104.55-104.55S198.35 151.4 256 151.4c15.65 0 30.75 3.4 44.8 10.1l1.65.8.7-1.65c2.55-6 6.65-11.35 11.8-15.5l2.1-1.7-2.4-1.25c-18.25-9.4-38-14.2-58.65-14.2-70.6 0-128 57.4-128 128s57.4 128 128 128 128-57.4 128-128c0-18.45-3.85-36.3-11.5-53.05z"/><path d="M257.95 197.701c-33.699-1.1-61.349 26.55-60.249 60.25 1 30.55 25.8 55.4 56.35 56.35 33.7 1.1 61.35-26.55 60.25-60.25-1-30.55-25.8-55.35-56.35-56.35z"/></g></g></svg>