<?xml version="1.0" encoding="UTF-8" standalone="no"?><!-- Generator: Gravit.io --><svg xmlns="http://www.w3.org/2000/svg" xmlns:xlink="http://www.w3.org/1999/xlink" style="isolation:isolate" viewBox="0 0 512 512" width="512pt" height="512pt"><defs><clipPath id="_clipPath_jnawpaDxImb9sJoDZkTNOBIJ0VYWf3qO"><rect width="512" height="512"/></clipPath></defs><g clip-path="url(#_clipPath_jnawpaDxImb9sJoDZkTNOBIJ0VYWf3qO)"><g><path d=" M 256 70 L 256 70 L 256 70 L 82.834 131.752 L 109.246 360.718 L 256 442 L 256 442 L 256 442 L 402.754 360.718 L 429.166 131.752 L 256 70 Z " fill="rgb(221,0,49)"/><path d=" M 256 70 L 256 111.292 L 256 111.106 L 256 299.524 L 256 299.524 L 256 442 L 256 442 L 402.754 360.718 L 429.166 131.752 L 256 70 L 256 70 Z " fill="rgb(195,0,47)"/><path d=" M 256 111.106 L 147.748 353.836 L 147.748 353.836 L 188.11 353.836 L 188.11 353.836 L 209.872 299.524 L 301.756 299.524 L 323.518 353.836 L 323.518 353.836 L 363.88 353.836 L 363.88 353.836 L 256 111.106 L 256 111.106 L 256 111.106 L 256 111.106 L 256 111.106 Z  M 287.62 266.044 L 224.38 266.044 L 256 189.97 L 287.62 266.044 Z " fill="rgb(255,255,255)"/></g></g></svg>