<svg width="864" height="474" viewBox="0 0 864 474" fill="none" xmlns="http://www.w3.org/2000/svg">
<rect width="864" height="474" fill="#58C4DC" fill-opacity="0.1"/>
<g clip-path="url(#clip0_276_438)">
<path d="M432.184 199.402C411.606 199.402 394.924 216.082 394.924 236.658C394.924 257.234 411.606 273.914 432.184 273.914C452.761 273.914 469.443 257.234 469.443 236.658C469.443 216.082 452.761 199.402 432.184 199.402Z" fill="#58C4DC"/>
<path d="M625.973 236.996C625.973 207.747 598.885 182.095 555.756 165.213C556.332 161.411 556.853 157.65 557.224 153.958C561.478 111.931 551.351 81.5977 528.723 68.5312C503.405 53.9136 467.645 64.5233 431.486 93.4564C395.328 64.5233 359.568 53.9136 334.25 68.5312C311.622 81.5977 301.495 111.931 305.749 153.958C306.119 157.65 306.627 161.424 307.217 165.24C303.622 166.613 300.095 168.067 296.706 169.591C258.201 186.899 237 210.863 237 236.996C237 266.245 264.088 291.898 307.217 308.78C306.627 312.582 306.119 316.342 305.749 320.035C301.495 362.062 311.622 392.395 334.25 405.461C342.03 409.872 350.845 412.128 359.787 411.994C381.221 411.994 406.251 400.712 431.486 380.536C456.708 400.712 481.751 411.994 503.213 411.994C512.154 412.126 520.969 409.871 528.75 405.461C551.378 392.395 561.505 362.062 557.251 320.035C556.881 316.342 556.359 312.582 555.783 308.78C598.912 291.925 626 266.231 626 236.996M503.048 80.5271C508.798 80.3884 514.481 81.7811 519.515 84.5624C535.227 93.6348 542.28 118.244 538.85 152.077C538.616 154.383 538.342 156.717 538.013 159.064C520.079 153.662 501.715 149.809 483.123 147.548C471.853 132.563 459.32 118.572 445.661 105.727C467.109 89.1466 487.24 80.5271 503.034 80.5271M495.666 274.055C488.725 286.103 481.168 297.785 473.024 309.054C459.219 310.473 445.35 311.178 431.473 311.168C417.6 311.178 403.735 310.472 389.935 309.054C381.813 297.785 374.278 286.103 367.362 274.055C360.422 262.04 354.115 249.67 348.466 236.996C354.115 224.322 360.422 211.953 367.362 199.938C374.267 187.938 381.778 176.298 389.867 165.062C403.692 163.608 417.585 162.884 431.486 162.893C445.359 162.885 459.223 163.59 473.024 165.007C481.14 176.26 488.678 187.919 495.611 199.938C502.545 211.956 508.852 224.325 514.506 236.996C508.852 249.667 502.545 262.037 495.611 274.055M523.947 260.329C528.302 272.208 531.878 284.357 534.651 296.701C522.617 300.454 510.351 303.411 497.93 305.554C502.65 298.435 507.224 291.028 511.652 283.333C516.029 275.729 520.132 268.057 524.002 260.384M405.428 328.86C413.963 329.382 422.677 329.683 431.5 329.683C440.323 329.683 449.092 329.382 457.641 328.86C449.535 338.571 440.803 347.741 431.5 356.311C422.217 347.742 413.508 338.572 405.428 328.86ZM365.057 305.527C352.632 303.393 340.36 300.445 328.322 296.701C331.084 284.377 334.645 272.245 338.984 260.384C342.799 268.057 346.888 275.729 351.334 283.333C355.78 290.937 360.377 298.431 365.057 305.554M338.984 213.594C334.661 201.777 331.108 189.692 328.349 177.414C340.358 173.667 352.596 170.7 364.988 168.534C360.295 175.63 355.698 182.987 351.266 190.659C346.833 198.332 342.785 205.908 338.916 213.594M457.559 145.119C449.023 144.597 440.31 144.295 431.418 144.295C422.599 144.295 413.908 144.57 405.345 145.119C413.425 135.407 422.135 126.237 431.418 117.668C440.724 126.234 449.457 135.405 457.559 145.119ZM511.625 190.659C507.179 182.955 502.582 175.543 497.834 168.424C510.287 170.568 522.586 173.53 534.651 177.291C531.882 189.614 528.321 201.745 523.988 213.608C520.174 205.936 516.071 198.263 511.638 190.673M324.178 152.091C320.706 118.272 327.801 93.6486 343.499 84.5761C348.535 81.7991 354.217 80.4067 359.966 80.5408C375.76 80.5408 395.891 89.1604 417.339 105.741C403.671 118.595 391.129 132.595 379.849 147.589C361.262 149.861 342.901 153.699 324.96 159.064C324.644 156.717 324.356 154.397 324.137 152.091M304.308 186.487C306.421 185.572 308.576 184.657 310.771 183.742C315.088 201.956 320.94 219.771 328.267 236.996C320.927 254.255 315.069 272.107 310.757 290.36C275.793 276.017 255.525 256.143 255.525 236.996C255.525 218.851 273.364 200.446 304.308 186.487ZM343.499 389.416C327.801 380.344 320.706 355.72 324.178 321.901C324.397 319.595 324.686 317.276 325.001 314.915C342.935 320.315 361.299 324.168 379.89 326.431C391.165 341.421 403.697 355.421 417.352 368.279C387.451 391.379 360.13 398.997 343.54 389.416M538.836 321.901C542.266 355.734 535.213 380.344 519.501 389.416C502.925 399.024 475.59 391.379 445.703 368.279C459.353 355.421 471.881 341.42 483.151 326.431C501.743 324.169 520.107 320.317 538.04 314.915C538.369 317.276 538.644 319.595 538.877 321.901M552.297 290.333C547.974 272.091 542.112 254.248 534.774 236.996C542.108 219.735 547.966 201.883 552.284 183.632C587.18 197.975 607.502 217.849 607.502 236.996C607.502 256.143 587.234 276.017 552.27 290.36" fill="#58C4DC"/>
</g>
<defs>
<clipPath id="clip0_276_438">
<rect width="389" height="350" fill="white" transform="translate(237 62)"/>
</clipPath>
</defs>
</svg>
