<svg fill="none" xmlns="http://www.w3.org/2000/svg" viewBox="0 0 24 25"><path d="M24 12.023c0 5.25-.9 8.325-3.075 10.05-1.875 1.5-4.8 1.95-8.925 1.95-4.725 0-7.8-.6-9.675-2.7C.675 19.523 0 16.598 0 12.023c0-4.875.75-7.875 2.625-9.6C4.5.623 7.5.023 12 .023c4.425 0 7.425.525 9.3 2.325 1.95 1.725 2.7 4.725 2.7 9.675z" fill="#00CEAB"/><path d="M14.69 4.588l-5.93 14.59.625.255 5.931-14.59-.625-.255z" fill="#08ECC0"/><path d="M4.855 8.667l-.254.625 14.59 5.936.254-.625-14.59-5.936z" fill="#08ECC0"/><path d="M19.141 8.657l-14.512 6.12.262.622 14.512-6.12-.262-.622z" fill="#08ECC0"/><path d="M9.295 4.594l-.622.262 6.119 14.514.622-.262-6.12-14.514z" fill="#08ECC0"/><path fill-rule="evenodd" clip-rule="evenodd" d="M15.375 4.336a.562.562 0 100-1.125.562.562 0 000 1.125zm0 .656a1.219 1.219 0 100-2.437 1.219 1.219 0 000 2.437zM8.719 20.742a.563.563 0 100-1.125.563.563 0 000 1.125zm0 .656a1.219 1.219 0 100-2.437 1.219 1.219 0 000 2.437zM20.156 15.867a.563.563 0 100-1.125.563.563 0 000 1.125zm0 .656a1.219 1.219 0 100-2.437 1.219 1.219 0 000 2.437zM3.844 9.117a.563.563 0 100-1.125.563.563 0 000 1.125zm0 .656a1.219 1.219 0 100-2.437 1.219 1.219 0 000 2.437zM20.156 9.117a.563.563 0 100-1.125.563.563 0 000 1.125zm0 .656a1.219 1.219 0 100-2.437 1.219 1.219 0 000 2.437zM3.844 15.96a.562.562 0 100-1.124.562.562 0 000 1.125zm0 .657a1.219 1.219 0 100-2.437 1.219 1.219 0 000 2.437zM15.469 20.719a.563.563 0 100-1.125.563.563 0 000 1.125zm0 .656a1.219 1.219 0 100-2.438 1.219 1.219 0 000 2.438zM8.625 4.336a.563.563 0 100-1.125.563.563 0 000 1.125zm0 .656a1.219 1.219 0 100-2.437 1.219 1.219 0 000 2.437z" fill="#08ECC0"/><circle cx="12" cy="12.023" fill="url(#paint0_radial)" r="8.531"/><path d="M12 6.075c-1.275 0-2.475.9-2.475 2.775s1.2 2.775 2.475 2.775c1.275 0 2.475-.9 2.475-2.775S13.275 6.075 12 6.075z" fill="#fff"/><path d="M12 12.525c-2.475 0-5.175 1.125-5.175 3.225 0 .75 2.325 1.5 5.175 1.5 2.85 0 5.175-.675 5.175-1.5 0-2.1-2.7-3.225-5.175-3.225z" fill="url(#paint1_linear)"/><defs><radialGradient id="paint0_radial" cx="0" cy="0" r="1" gradientUnits="userSpaceOnUse" gradientTransform="rotate(90 -.012 12.012) scale(8.53125)"><stop offset=".302" stop-color="#00CEAB"/><stop offset="1" stop-color="#00CEAB" stop-opacity="0"/></radialGradient><linearGradient id="paint1_linear" x1="12" y1="12.898" x2="12" y2="17.114" gradientUnits="userSpaceOnUse"><stop stop-color="#BAFFF1"/><stop offset=".016" stop-color="#BEFFF2"/><stop offset=".127" stop-color="#D6FFF7"/><stop offset=".253" stop-color="#E8FFFA"/><stop offset=".403" stop-color="#F5FFFD"/><stop offset=".597" stop-color="#FDFFFF"/><stop offset="1" stop-color="#fff"/></linearGradient></defs></svg>