<svg fill="none" xmlns="http://www.w3.org/2000/svg" viewBox="0 0 24 24"><path d="M24 12c0 5.25-.9 8.325-3.075 10.05C19.05 23.55 16.125 24 12 24c-4.725 0-7.8-.6-9.675-2.7C.675 19.5 0 16.575 0 12c0-4.875.75-7.875 2.625-9.6C4.5.525 7.5 0 12 0c4.425 0 7.425.525 9.3 2.325C23.25 4.05 24 7.05 24 12z" fill="#0065D4"/><path d="M12 20.025c-4.35 0-7.95-3.525-7.95-7.95C4.05 7.65 7.65 4.2 12 4.2s7.95 3.525 7.95 7.95c0 4.425-3.6 7.875-7.95 7.875zM12 5.1c-3.9 0-7.05 3.15-7.05 7.05S8.1 19.2 12 19.2s7.05-3.15 7.05-7.05S15.9 5.1 12 5.1z" fill="#1F95FF"/><path d="M11.175 11.326v-7.65c0-.45.375-.825.825-.825.45 0 .825.375.825.825v7.65c0 .45-.375.825-.825.825a.832.832 0 01-.825-.825z" fill="url(#paint0_linear)"/><path d="M19.65 15.676l-7.275-4.2c-.375-.225-.9-.075-1.125.3-.225.375-.075.825.3 1.05l7.275 4.2c.375.225.9.075 1.125-.3.225-.3.075-.825-.3-1.05z" fill="url(#paint1_linear)"/><path d="M4.35 15.676l7.275-4.2c.375-.225.9-.075 1.125.3.225.375.075.825-.3 1.05l-7.275 4.2c-.375.225-.9.075-1.125-.3-.225-.3-.075-.825.3-1.05z" fill="url(#paint2_linear)"/><path d="M12 8.476a3.681 3.681 0 00-3.675 3.675A3.681 3.681 0 0012 15.826a3.681 3.681 0 003.675-3.675A3.681 3.681 0 0012 8.476z" fill="#fff"/><defs><linearGradient id="paint0_linear" x1="12" y1="8.807" x2="12" y2="3.042" gradientUnits="userSpaceOnUse"><stop stop-color="#80BDFE"/><stop offset="1" stop-color="#DFF1FB"/></linearGradient><linearGradient id="paint1_linear" x1="14.952" y1="13.883" x2="19.943" y2="16.773" gradientUnits="userSpaceOnUse"><stop stop-color="#80BDFE"/><stop offset="1" stop-color="#DFF1FB"/></linearGradient><linearGradient id="paint2_linear" x1="9.017" y1="13.913" x2="4.025" y2="16.715" gradientUnits="userSpaceOnUse"><stop stop-color="#80BDFE"/><stop offset="1" stop-color="#DFF1FB"/></linearGradient></defs></svg>
