<svg width="32" height="33" viewBox="0 0 32 33" fill="none" xmlns="http://www.w3.org/2000/svg">
<path d="M32 16.3281C32 23.3281 30.8 27.4281 27.9 29.7281C25.4 31.7281 21.5 32.3281 16 32.3281C9.7 32.3281 5.6 31.5281 3.1 28.7281C0.9 26.3281 0 22.4281 0 16.3281C0 9.82812 1 5.82812 3.5 3.52813C6 1.02813 10 0.328125 16 0.328125C21.9 0.328125 25.9 1.02812 28.4 3.42812C31 5.72812 32 9.72813 32 16.3281Z" fill="#FFC409"/>
<rect width="11.6671" height="3.88902" transform="matrix(0.707097 0.707117 0.707097 -0.707117 13.25 7.75)" fill="#FFF4D1"/>
<path opacity="0.2" d="M21.5002 15.9997L24.2501 13.2497L23.268 12.2676L21.5002 15.9997Z" fill="#CE8E00"/>
<rect width="11.6671" height="3.88902" transform="matrix(0.707098 0.707116 0.707098 -0.707116 7.75049 18.75)" fill="#FFF4D1"/>
<path opacity="0.2" d="M7.75079 18.7503L10.5007 16.0003L11.4828 16.9824L7.75079 18.7503Z" fill="#CE8E00"/>
<rect width="11.6671" height="3.88902" transform="matrix(-0.707097 0.707116 0.707097 0.707116 13.25 7.75)" fill="white"/>
<rect width="11.6671" height="3.88903" transform="matrix(-0.707097 0.707117 0.707097 0.707117 24.25 13.25)" fill="white"/>
<rect width="5.31657" height="5.31668" rx="2.65828" transform="matrix(1 0 9.33855e-06 -0.999998 13.3418 18.6582)" fill="#FFFBEF"/>
</svg>
