<svg width="256" height="256" viewBox="0 0 256 256" fill="none" xmlns="http://www.w3.org/2000/svg">
<g clip-path="url(#clip0)">
<path d="M256 128.006C256 184.002 246.399 216.806 223.196 235.208C203.193 251.21 172 256.011 127.994 256.011C77.599 256.011 44.7947 249.61 24.7921 227.207C7.20094 208.005 0 176.801 0 128.006C0 75.9988 8.00104 44.0057 28.0036 25.6033C48.0063 5.60073 79.9993 0 128.006 0C175.212 0 207.205 5.60073 227.207 24.8032C247.999 43.2056 256 75.1987 256 128.006Z" fill="#7580F4"/>
<path fill-rule="evenodd" clip-rule="evenodd" d="M51 78.5C53.7614 78.5 56 80.7386 56 83.5L56 187C56 189.761 53.7614 192 51 192C48.2386 192 46 189.761 46 187L46 83.5C46 80.7386 48.2386 78.5 51 78.5Z" fill="url(#paint0_linear)"/>
<path d="M128.126 130.316C173.411 130.129 210.057 109.611 209.976 84.4886C209.896 59.3659 173.12 39.1516 127.835 39.3386C82.5499 39.5256 45.9041 60.0432 45.9844 85.1658C46.0647 110.289 82.8407 130.503 128.126 130.316Z" fill="white"/>
<g filter="url(#filter0_i)">
<path d="M149.91 62.3311C141.2 55.4591 124.318 53.9442 112.225 58.9571C100.121 63.97 97.3805 73.5963 106.09 80.4683C108.214 82.1458 110.834 83.5007 113.744 84.5185C114.9 84.9229 115.57 86.1596 115.193 87.3234L109.351 105.359C108.449 108.145 110.529 111 113.462 111H142.553C145.484 111 147.564 108.147 146.664 105.361L140.802 87.2311C140.427 86.0708 141.092 84.8391 142.245 84.4374C142.767 84.2555 143.282 84.0621 143.786 83.8562C155.879 78.8295 158.619 69.2032 149.91 62.3311Z" fill="url(#paint1_linear)"/>
</g>
<path fill-rule="evenodd" clip-rule="evenodd" d="M48.5999 182.831C51.0467 181.551 54.068 182.497 55.3481 184.943C59.3371 192.568 68.2402 199.806 81.1741 205.165C93.9933 210.477 110.231 213.703 128.006 213.703C156.649 213.703 180.931 205.35 193.63 193.762C195.669 191.901 198.832 192.045 200.693 194.085C202.555 196.125 202.41 199.287 200.37 201.149C185.2 214.992 158.135 223.703 128.006 223.703C109.086 223.703 91.5253 220.278 77.3465 214.404C63.2825 208.577 51.9885 200.094 46.4874 189.579C45.2073 187.132 46.1531 184.111 48.5999 182.831Z" fill="url(#paint2_linear)"/>
<path fill-rule="evenodd" clip-rule="evenodd" d="M48.6832 152.299C51.13 151.019 54.1513 151.965 55.4314 154.411C59.4204 162.036 68.3235 169.274 81.2574 174.633C94.0766 179.944 110.315 183.171 128.089 183.171C159.695 183.171 185.775 173.027 197.088 159.756C198.879 157.655 202.035 157.403 204.136 159.195C206.238 160.986 206.489 164.142 204.698 166.244C190.687 182.68 161.116 193.171 128.089 193.171C109.169 193.171 91.6086 189.746 77.4298 183.872C63.3658 178.045 52.0718 169.562 46.5707 159.047C45.2906 156.6 46.2364 153.579 48.6832 152.299Z" fill="url(#paint3_linear)"/>
<path fill-rule="evenodd" clip-rule="evenodd" d="M48.6832 121.767C51.13 120.487 54.1513 121.432 55.4314 123.879C59.4204 131.504 68.3235 138.742 81.2574 144.101C94.0766 149.412 110.315 152.639 128.089 152.639C145.863 152.639 162.101 149.412 174.92 144.101C187.854 138.742 196.757 131.504 200.746 123.879C202.026 121.432 205.048 120.487 207.494 121.767C209.941 123.047 210.887 126.068 209.607 128.515C204.106 139.03 192.812 147.512 178.748 153.34C164.569 159.214 147.008 162.639 128.089 162.639C109.169 162.639 91.6086 159.214 77.4298 153.34C63.3658 147.512 52.0718 139.03 46.5707 128.515C45.2906 126.068 46.2364 123.047 48.6832 121.767Z" fill="url(#paint4_linear)"/>
</g>
<defs>
<filter id="filter0_i" x="101" y="56" width="54" height="60" filterUnits="userSpaceOnUse" color-interpolation-filters="sRGB">
<feFlood flood-opacity="0" result="BackgroundImageFix"/>
<feBlend mode="normal" in="SourceGraphic" in2="BackgroundImageFix" result="shape"/>
<feColorMatrix in="SourceAlpha" type="matrix" values="0 0 0 0 0 0 0 0 0 0 0 0 0 0 0 0 0 0 127 0" result="hardAlpha"/>
<feOffset dy="11"/>
<feGaussianBlur stdDeviation="2.5"/>
<feComposite in2="hardAlpha" operator="arithmetic" k2="-1" k3="1"/>
<feColorMatrix type="matrix" values="0 0 0 0 0 0 0 0 0 0 0 0 0 0 0 0 0 0 0.02 0"/>
<feBlend mode="normal" in2="shape" result="effect1_innerShadow"/>
</filter>
<linearGradient id="paint0_linear" x1="51.1899" y1="190.225" x2="51.1899" y2="89.6551" gradientUnits="userSpaceOnUse">
<stop offset="0.0108" stop-color="#9DAAF8"/>
<stop offset="0.7012" stop-color="#DBE9FE"/>
</linearGradient>
<linearGradient id="paint1_linear" x1="128.023" y1="63.1785" x2="127.85" y2="103.063" gradientUnits="userSpaceOnUse">
<stop stop-color="#656FDB"/>
<stop offset="0.138" stop-color="#6973E1"/>
<stop offset="0.6048" stop-color="#727DEF"/>
<stop offset="1" stop-color="#7580F4"/>
</linearGradient>
<linearGradient id="paint2_linear" x1="46.4647" y1="202.986" x2="209.54" y2="202.986" gradientUnits="userSpaceOnUse">
<stop stop-color="#A3B0F9"/>
<stop offset="1" stop-color="#7287F8"/>
</linearGradient>
<linearGradient id="paint3_linear" x1="46.548" y1="172.453" x2="209.623" y2="172.453" gradientUnits="userSpaceOnUse">
<stop stop-color="#BFCDFC"/>
<stop offset="1" stop-color="#7390FB"/>
</linearGradient>
<linearGradient id="paint4_linear" x1="46.548" y1="141.921" x2="209.623" y2="141.921" gradientUnits="userSpaceOnUse">
<stop stop-color="#DAE8FE"/>
<stop offset="1" stop-color="#819EFC"/>
</linearGradient>
<clipPath id="clip0">
<rect width="256" height="256" fill="white"/>
</clipPath>
</defs>
</svg>
