<svg width="16" height="16" viewBox="0 0 16 16" fill="none" xmlns="http://www.w3.org/2000/svg">
<rect width="16" height="16" rx="8" fill="#FFD12F"/>
<path d="M7.14286 5.15911H5.71429V9.38492C5.71429 10.4305 5.39229 10.7225 4.83193 10.7225C4.56934 10.7225 4.33286 10.6724 4.14889 10.6019L4 11.839C4.2625 11.9397 4.66534 12 4.98048 12C6.26705 12 7.14286 11.3264 7.14286 9.39528V5.15911ZM10.2583 5C8.87536 5 8 5.87496 8 7.03147C8 8.02744 8.67413 8.65102 9.6543 9.05322C10.3632 9.33477 10.6434 9.58633 10.6434 9.9986C10.6434 10.4511 10.3195 10.7428 9.70688 10.7428C9.13789 10.7428 8.62136 10.5313 8.27127 10.3202V10.3197L8 11.577C8.33284 11.7885 8.9543 11.9996 9.62798 11.9996C11.2474 11.9996 12 11.0341 12 9.89769C12 8.93221 11.5186 8.30877 10.4772 7.86604C9.70684 7.52418 9.38307 7.33319 9.38307 6.90072C9.38307 6.55867 9.66321 6.24707 10.241 6.24707C10.8097 6.24707 11.2007 6.46 11.4286 6.59093L11.7701 5.3182C11.4129 5.14358 10.9319 5 10.2583 5Z" fill="#0E151F"/>
</svg>
