<svg width="16" height="16" viewBox="0 0 16 16" fill="none" xmlns="http://www.w3.org/2000/svg">
<circle cx="8" cy="8" r="8" fill="#1A232F"/>
<path d="M9.01866 7.99974C9.01866 8.56741 8.5626 9.0276 8.00003 9.0276C7.43745 9.0276 6.98139 8.56741 6.98139 7.99974C6.98139 7.43206 7.43745 6.97187 8.00003 6.97187C8.5626 6.97187 9.01866 7.43206 9.01866 7.99974Z" fill="#5ADBFF"/>
<path fill-rule="evenodd" clip-rule="evenodd" d="M7.50216 3.68323C7.66655 3.81805 7.83294 3.96799 7.99993 4.13182C8.16692 3.96799 8.33331 3.81805 8.4977 3.68323C8.92229 3.33502 9.34418 3.0789 9.73811 2.9503C10.132 2.82172 10.5254 2.81301 10.8571 3.00621C11.1887 3.19942 11.3779 3.54759 11.4645 3.9561C11.5511 4.36464 11.5423 4.86137 11.4557 5.40652C11.4222 5.61759 11.3767 5.83796 11.3196 6.06581C11.5437 6.12982 11.7556 6.20025 11.9535 6.2765C12.4646 6.47344 12.8954 6.71405 13.2027 6.994C13.51 7.27392 13.7142 7.61338 13.7142 7.99979C13.7142 8.3862 13.51 8.72566 13.2027 9.00558C12.8954 9.28553 12.4646 9.52614 11.9535 9.72308C11.7556 9.79933 11.5437 9.86976 11.3196 9.93377C11.3767 10.1616 11.4222 10.382 11.4557 10.5931C11.5423 11.1382 11.5511 11.6349 11.4645 12.0435C11.3779 12.452 11.1887 12.8002 10.8571 12.9934C10.5254 13.1866 10.132 13.1779 9.73811 13.0493C9.34418 12.9207 8.92229 12.6646 8.4977 12.3163C8.33331 12.1815 8.16692 12.0316 7.99993 11.8678C7.83294 12.0316 7.66655 12.1815 7.50216 12.3163C7.07757 12.6646 6.65568 12.9207 6.26175 13.0493C5.86786 13.1779 5.47442 13.1866 5.14279 12.9934C4.81115 12.8002 4.62191 12.452 4.53532 12.0435C4.44872 11.6349 4.4576 11.1382 4.54415 10.5931C4.57766 10.382 4.62315 10.1616 4.68027 9.93377C4.45616 9.86976 4.24429 9.79933 4.04638 9.72308C3.53523 9.52614 3.10447 9.28553 2.79715 9.00558C2.48984 8.72566 2.28564 8.3862 2.28564 7.99979C2.28564 7.61338 2.48984 7.27392 2.79715 6.994C3.10447 6.71405 3.53523 6.47344 4.04638 6.2765C4.24429 6.20025 4.45616 6.12982 4.68027 6.06581C4.62315 5.83796 4.57766 5.61759 4.54415 5.40652C4.4576 4.86137 4.44872 4.36464 4.53532 3.9561C4.62191 3.54759 4.81115 3.19942 5.14279 3.00621C5.47442 2.81301 5.86786 2.82172 6.26175 2.9503C6.65568 3.0789 7.07757 3.33502 7.50216 3.68323ZM10.9786 4.06097C10.9094 3.73412 10.7761 3.53799 10.6086 3.44044C10.4412 3.34288 10.2062 3.32448 9.89105 3.42736C9.57593 3.53023 9.20814 3.74671 8.8111 4.07233C8.65855 4.19743 8.50325 4.33736 8.34659 4.49104C8.67379 4.84816 8.99966 5.25531 9.31386 5.70337C9.8555 5.75391 10.3679 5.83511 10.838 5.94247C10.8915 5.72874 10.934 5.52306 10.9651 5.3272C11.046 4.81743 11.0479 4.38778 10.9786 4.06097ZM7.18876 4.07233C7.34131 4.19743 7.49661 4.33736 7.65327 4.49104C7.32607 4.84816 7.0002 5.25531 6.686 5.70337C6.14436 5.75391 5.63199 5.8351 5.16189 5.94247C5.10833 5.72874 5.06589 5.52306 5.03479 5.3272C4.95385 4.81743 4.95195 4.38778 5.02122 4.06097C5.09051 3.73413 5.22378 3.53799 5.39123 3.44044C5.55869 3.34288 5.79366 3.32448 6.10881 3.42736C6.42393 3.53023 6.79172 3.74671 7.18876 4.07233ZM9.67662 6.24747C10.0378 6.2932 10.3811 6.35321 10.7021 6.42556C10.6037 6.74219 10.4835 7.07224 10.3422 7.41073C10.2416 7.2148 10.1349 7.01812 10.0224 6.8215C9.90995 6.62488 9.79447 6.43336 9.67662 6.24747ZM11.1846 6.54836C11.0417 7.01285 10.8552 7.50119 10.6278 7.99979C10.8552 8.49839 11.0417 8.98673 11.1846 9.45123C11.3949 9.39117 11.5926 9.32541 11.7762 9.25466C12.2542 9.07051 12.6239 8.85734 12.8698 8.6334C13.1156 8.40943 13.2173 8.1949 13.2173 7.99979C13.2173 7.80468 13.1156 7.59015 12.8698 7.36618C12.6239 7.14224 12.2542 6.92907 11.7762 6.74492C11.5926 6.67417 11.3949 6.60841 11.1846 6.54836ZM9.59213 7.0722C9.77023 7.38348 9.93252 7.69382 10.0786 7.99979C9.93251 8.30576 9.77023 8.6161 9.59213 8.92738C9.41402 9.23866 9.22882 9.53564 9.03925 9.81626C8.70362 9.84162 8.35614 9.85497 7.99993 9.85497C7.64372 9.85497 7.29624 9.84162 6.96061 9.81626C6.77104 9.53564 6.58584 9.23866 6.40773 8.92738C6.22963 8.6161 6.06735 8.30576 5.9213 7.99979C6.06735 7.69382 6.22963 7.38348 6.40773 7.0722C6.58584 6.76092 6.77104 6.46394 6.96061 6.18332C7.29624 6.15796 7.64372 6.14461 7.99993 6.14461C8.35614 6.14461 8.70363 6.15797 9.03925 6.18332C9.22882 6.46394 9.41402 6.76092 9.59213 7.0722ZM10.0224 9.17808C9.90995 9.3747 9.79447 9.56622 9.67662 9.75211C10.0378 9.70638 10.3811 9.64637 10.7021 9.57402C10.6037 9.25739 10.4835 8.92735 10.3422 8.58886C10.2416 8.78478 10.1349 8.98146 10.0224 9.17808ZM7.99993 10.3564C8.22493 10.3564 8.44704 10.3512 8.6655 10.3412C8.44567 10.6339 8.22249 10.904 7.99993 11.1483C7.77737 10.904 7.55419 10.6339 7.33436 10.3412C7.55282 10.3512 7.77493 10.3564 7.99993 10.3564ZM9.31386 10.2962C8.99966 10.7443 8.67379 11.1514 8.34659 11.5085C8.50325 11.6622 8.65855 11.8021 8.8111 11.9273C9.20814 12.2529 9.57593 12.4694 9.89105 12.5722C10.2062 12.6751 10.4412 12.6567 10.6086 12.5591C10.7761 12.4616 10.9094 12.2655 10.9786 11.9386C11.0479 11.6118 11.046 11.1822 10.9651 10.6724C10.934 10.4765 10.8915 10.2708 10.838 10.0571C10.3679 10.1645 9.8555 10.2457 9.31386 10.2962ZM6.686 10.2962C7.0002 10.7443 7.32607 11.1514 7.65327 11.5085C7.49661 11.6622 7.34131 11.8021 7.18876 11.9273C6.79172 12.2529 6.42393 12.4694 6.10881 12.5722C5.79366 12.6751 5.55869 12.6567 5.39123 12.5591C5.22378 12.4616 5.09051 12.2655 5.02122 11.9386C4.95195 11.6118 4.95385 11.1822 5.03479 10.6724C5.06589 10.4765 5.10833 10.2708 5.16189 10.0571C5.63199 10.1645 6.14436 10.2457 6.686 10.2962ZM6.32324 9.75211C5.96205 9.70638 5.61871 9.64637 5.29778 9.57402C5.39615 9.25739 5.51632 8.92734 5.65767 8.58885C5.75828 8.78478 5.86491 8.98146 5.97741 9.17808C6.08991 9.3747 6.20539 9.56622 6.32324 9.75211ZM5.97741 6.8215C5.86491 7.01812 5.75828 7.2148 5.65767 7.41073C5.51632 7.07223 5.39615 6.74219 5.29778 6.42556C5.61871 6.35321 5.96205 6.2932 6.32324 6.24747C6.20539 6.43336 6.08991 6.62488 5.97741 6.8215ZM4.81523 9.45123C4.95813 8.98673 5.14463 8.49839 5.37208 7.99979C5.14463 7.50119 4.95813 7.01285 4.81523 6.54835C4.60501 6.60841 4.40726 6.67417 4.22362 6.74492C3.74564 6.92907 3.37595 7.14224 3.1301 7.36618C2.88423 7.59015 2.78254 7.80468 2.78254 7.99979C2.78254 8.1949 2.88423 8.40943 3.1301 8.6334C3.37595 8.85734 3.74564 9.07051 4.22362 9.25466C4.40726 9.32541 4.60501 9.39117 4.81523 9.45123ZM7.99993 5.64322C7.77493 5.64322 7.55282 5.64837 7.33436 5.65841C7.55419 5.36564 7.77737 5.09561 7.99993 4.85133C8.22249 5.09561 8.44567 5.36564 8.6655 5.65841C8.44704 5.64837 8.22493 5.64322 7.99993 5.64322Z" fill="#5ADBFF"/>
</svg>
