<?xml version="1.0" encoding="utf-8"?>
<!-- Generator: Adobe Illustrator 22.1.0, SVG Export Plug-In . SVG Version: 6.00 Build 0)  -->
<svg version="1.1" id="Layer_1" xmlns="http://www.w3.org/2000/svg" xmlns:xlink="http://www.w3.org/1999/xlink" x="0px" y="0px"
	 viewBox="0 0 256 256" style="enable-background:new 0 0 256 256;" xml:space="preserve">
<style type="text/css">
	.st0{fill:#A4C639;}
</style>
<g>
	<g>
		<path class="st0" d="M53.5,136.3V196c0,4.6,3,9.3,7.6,9.3h19V240c0,8.9,7.1,16,16,16s16-7.1,16-16v-34.7h32.6V240
			c0,5,2.3,9.5,5.8,12.4c2.6,2.3,6,3.6,9.8,3.6c0.1,0,0.1,0,0.2,0c0.1,0,0.1,0,0.1,0c8.8,0,16-7.1,16-16v-34.7h18.3
			c4.7,0,7.6-4.7,7.6-9.3v-59.7v-51H53.5V136.3z"/>
		<path class="st0" d="M229,74.7c-8.8,0-16,7.1-16,16v64c0,8.9,7.1,16,16,16c8.8,0,16-7.1,16-16v-64C245,81.8,237.9,74.7,229,74.7z"
			/>
		<path class="st0" d="M27,74.7c-8.8,0-16,7.1-16,16v64c0,8.9,7.1,16,16,16s16-7.1,16-16v-64C42.9,81.8,35.8,74.7,27,74.7z"/>
	</g>
	<g>
		<path class="st0" d="M164.7,16.8L177,2.2c0.3-0.3-0.1-1.1-0.9-1.7c-0.7-0.5-1.6-0.7-1.8-0.3l-12.8,15.2c-9-3.6-20.1-5.9-33.6-5.9
			c-13.6-0.1-24.7,2.1-33.8,5.7L81.5,0.3C81.3,0,80.5,0,79.7,0.6c-0.7,0.5-1.1,1.2-0.9,1.7L91,16.6C59,30.6,54.2,64.8,53.5,74.8
			h148.6C201.6,64.7,196.9,31,164.7,16.8z M95.3,50c-4.9,0-9-4-9-8.9s4-8.9,9-8.9c4.9,0,9,4,9,8.9S100.3,50,95.3,50z M160.7,50
			c-4.9,0-9-4-9-8.9s4-8.9,9-8.9c4.9,0,9,4,9,8.9S165.6,50,160.7,50z"/>
	</g>
</g>
</svg>
