<?xml version="1.0" encoding="utf-8"?>
<!-- Generator: Adobe Illustrator 22.1.0, SVG Export Plug-In . SVG Version: 6.00 Build 0)  -->
<svg version="1.1" id="Layer_1" xmlns="http://www.w3.org/2000/svg" xmlns:xlink="http://www.w3.org/1999/xlink" x="0px" y="0px"
	 viewBox="0 0 256 256" style="enable-background:new 0 0 256 256;" xml:space="preserve">
<style type="text/css">
	.st0{fill:#000000;}
</style>
<g>
	<g>
		<path class="st0" d="M180.4,59.9c-22.7,0-32.3,11-48.1,11c-16.2,0-28.6-10.9-48.2-10.9c-19.2,0-39.8,11.9-52.8,32.3
			c-18.3,28.7-15.2,82.6,14.4,128.6c10.6,16.5,24.8,34.9,43.3,35.1c0.1,0,0.2,0,0.3,0c16.1,0,20.9-10.7,43.1-10.9c0.1,0,0.2,0,0.3,0
			c21.9,0,26.3,10.8,42.3,10.8c0.1,0,0.2,0,0.3,0c18.6-0.2,33.5-20.7,44.1-37.1c7.6-11.8,10.5-17.7,16.3-31.1
			c-42.9-16.5-49.7-78.2-7.4-101.9C215.7,69.4,197.5,59.9,180.4,59.9L180.4,59.9z"/>
		<path class="st0" d="M175.4,0c-13.5,0.9-29.2,9.7-38.5,21.1c-8.4,10.3-15.3,25.7-12.6,40.5c0.3,0,0.7,0,1.1,0
			c14.4,0,29.1-8.8,37.7-20.1C171.4,30.8,177.7,15.6,175.4,0L175.4,0z"/>
	</g>
</g>
</svg>
