<?xml version="1.0" encoding="utf-8"?>
<!-- Generator: Adobe Illustrator 22.1.0, SVG Export Plug-In . SVG Version: 6.00 Build 0)  -->
<svg version="1.1" id="Layer_1" xmlns="http://www.w3.org/2000/svg" xmlns:xlink="http://www.w3.org/1999/xlink" x="0px" y="0px"
	 viewBox="0 0 256 256" style="enable-background:new 0 0 256 256;" xml:space="preserve">
<style type="text/css">
	.st0{fill:#FFFFFF;}
	.st1{fill-rule:evenodd;clip-rule:evenodd;fill:#FFFFFF;}
</style>
<path class="st0" d="M235.6,192.7c0-3.3-2.7-6-6-6c-3.3,0-6,2.7-6,6c0,3.3,2.7,6,6,6C233,198.7,235.6,195.9,235.6,192.7z
	 M249.6,192.7c0,11.1-9,20-20,20c-11,0-20-8.9-20-20s9-20,20-20C240.7,172.7,249.6,181.6,249.6,192.7z M51.7,149
	c2.7-3,7.4-3.2,10.4-0.5c11.1,10,25.5,20.7,40.1,28.8c45.1,25.2,92.4,32,113.9,18.2c3.3-2.1,5.6,0.3,8,3.4c2.6,3.4,4.1,6.1,0.6,8.4
	c-27,17.8-80,10.4-129.7-17.4c-15.5-8.6-30.8-20-42.7-30.7C49.2,156.6,48.9,152,51.7,149L51.7,149z M28.9,116.9
	c-3.9,2.4-9,0.6-10.6-3.6c-5.7-14.9-5.6-28.8,1.1-40.1c10.1-16.9,32.6-24.1,61.3-21.6c4.2,0.4,7.2,4.2,6.6,8.3v0
	c-0.6,3.8-4.1,6.5-8,6.2c-23.4-2-40.6,3.4-47.2,14.5c-4.2,7-4.3,16.5-0.1,27.4c1.3,3.3,0.1,7-3,8.8L28.9,116.9z"/>
<path class="st0" d="M153.2,63.1c0.9,3.8-1.3,7.6-5.1,8.7c-15.1,4.3-30.7,10.8-45.9,19.3C55.9,117,26,154.6,29.3,179.2
	c0.5,3.9-3.2,1.8-7.1,2.7c-4.2,0.9-6.8,4.1-7.5-0.1c-4.8-32,28.8-74.6,80.2-103.4c16.1-9,32.8-16,49-20.6
	C148,56.6,152.2,59,153.2,63.1L153.2,63.1z M217.3,146c-2.5,2.9-6.9,3.3-9.9,1.1c-3.5-2.5-3.8-7.7-1-10.9
	c19.1-21.9,25.3-42.6,17.7-55.4c-4.2-7-12.5-11.8-24.3-13.8c-3.8-0.6-6.4-4.1-6-7.9v0c0.5-4.2,4.5-7.1,8.7-6.4
	c15.7,2.7,27.7,9.7,34.3,20.7C248.3,92.9,240.2,119.8,217.3,146z"/>
<path class="st0" d="M128.1,26c3.3,0,6-2.7,6-6c0-3.3-2.7-6-6-6c-3.3,0-6,2.7-6,6C122.1,23.3,124.8,26,128.1,26z M128.1,40
	c-11,0-20-8.9-20-20c0-11.1,9-20,20-20s20,8.9,20,20C148.1,31.1,139.1,40,128.1,40z M179.7,189.3c-3.8-1.1-6.1-4.9-5.2-8.6
	c3.4-14.3,5.2-30.1,5.2-46.3c0-51-18.1-94.3-41.3-104.7c-3.6-1.6-3.7-4.6-2.4-8.3c1.4-4,4-6.9,7.9-5.2c30.1,13,50.6,61.8,50.6,118.2
	c0,17.4-1.9,34.2-5.6,49.6C187.9,188,183.8,190.4,179.7,189.3L179.7,189.3z M80.1,200.7c3.6-1.2,7.5,0.5,9.1,3.9
	c10,21.6,25.2,36.8,38.9,36.8c8.2,0,16.4-4.4,24-12.8c2.4-2.7,6.4-3,9.4-1l0.2,0.1c3.6,2.5,4.2,7.6,1.3,10.8
	c-10.1,11.2-22,17.4-34.7,17.4c-20.6,0-40.2-19.1-52.4-45.5C73.9,206.6,76,202.1,80.1,200.7L80.1,200.7z"/>
<path class="st1" d="M132.9,152.5c-12.4,2.7-24.6-5.2-27.3-17.6c-2.7-12.4,5.2-24.6,17.6-27.3c12.4-2.7,24.6,5.2,27.3,17.6
	C153.2,137.6,145.3,149.8,132.9,152.5z"/>
<g>
	<path class="st0" d="M26.4,172.7c-11,0-20,8.9-20,20c0,11.1,9,20,20,20s20-8.9,20-20C46.4,181.6,37.4,172.7,26.4,172.7z
		 M26.4,198.7c-3.3,0-6-2.7-6-6c0-3.3,2.7-6,6-6s6,2.7,6,6C32.4,195.9,29.7,198.7,26.4,198.7z"/>
</g>
</svg>
