<?xml version="1.0" encoding="utf-8"?>
<!-- Generator: Adobe Illustrator 22.1.0, SVG Export Plug-In . SVG Version: 6.00 Build 0)  -->
<svg version="1.1" id="Layer_1" xmlns="http://www.w3.org/2000/svg" xmlns:xlink="http://www.w3.org/1999/xlink" x="0px" y="0px"
	 viewBox="0 0 256 256" style="enable-background:new 0 0 256 256;" xml:space="preserve">
<style type="text/css">
	.st0{fill:#FFFFFF;}
</style>
<g>
	<path class="st0" d="M74.4,77.4C67.8,68.8,58,64.5,45.2,64.5H0v127h27.7v-43.6h18c5.4,0,10.3-0.7,14.5-2.1l4.6-16.7l13-46.6
		C76.8,80.7,75.7,79,74.4,77.4z M51.9,118.2c-2.5,3.4-7.1,5-13.9,5H27.7V89.1h10.5c6.3,0,10.7,1.5,13.3,4.6
		c2.6,3.1,3.9,7.1,3.9,12.2C55.4,111.1,54.2,115.2,51.9,118.2z"/>
	<polygon class="st0" points="219.8,65.6 206.2,108.4 215.4,142.4 195.4,142.4 187.3,167.9 221.6,167.9 228,191.5 256,191.5 	"/>
	<polygon class="st0" points="180.8,64.5 152.8,146.6 132.9,64.5 112.1,64.5 90.7,146.6 79.7,119.3 66.2,170.7 75.9,191.5 
		102.5,191.5 121.9,117.9 140.3,191.5 167,191.5 207.9,64.5 	"/>
</g>
</svg>
