<?xml version="1.0" encoding="UTF-8" standalone="no"?><!-- Generator: Gravit.io --><svg xmlns="http://www.w3.org/2000/svg" xmlns:xlink="http://www.w3.org/1999/xlink" style="isolation:isolate" viewBox="0 0 512 512" width="512pt" height="512pt"><defs><clipPath id="_clipPath_VNvigcTwc9M00HchWMvkqy1FUGPqNUDm"><rect width="512" height="512"/></clipPath></defs><g clip-path="url(#_clipPath_VNvigcTwc9M00HchWMvkqy1FUGPqNUDm)"><g><path d=" M 468 256.043 C 468 227.955 432.825 201.336 378.896 184.829 C 391.341 129.863 385.81 86.132 361.438 72.131 C 355.821 68.847 349.252 67.291 342.079 67.291 L 342.079 86.564 C 346.055 86.564 349.252 87.342 351.932 88.811 C 363.685 95.552 368.784 121.221 364.809 154.235 C 363.858 162.359 362.302 170.915 360.401 179.644 C 343.462 175.495 324.967 172.298 305.521 170.223 C 293.854 154.235 281.755 139.715 269.569 127.011 C 297.743 100.824 324.189 86.478 342.166 86.478 L 342.166 67.205 C 342.166 67.205 342.166 67.205 342.166 67.205 C 318.399 67.205 287.286 84.144 255.827 113.529 C 224.369 84.317 193.256 67.551 169.489 67.551 L 169.489 86.823 C 187.379 86.823 213.911 101.084 242.086 127.097 C 229.986 139.802 217.887 154.235 206.392 170.223 C 186.86 172.298 168.365 175.495 151.426 179.73 C 149.438 171.088 147.969 162.704 146.932 154.667 C 142.87 121.653 147.883 95.985 159.55 89.157 C 162.143 87.601 165.513 86.91 169.489 86.91 L 169.489 67.637 C 169.489 67.637 169.489 67.637 169.489 67.637 C 162.229 67.637 155.661 69.193 149.957 72.477 C 125.671 86.478 120.227 130.122 132.758 184.916 C 79.002 201.509 44 228.042 44 256.043 C 44 284.131 79.175 310.75 133.104 327.257 C 120.659 382.223 126.19 425.954 150.562 439.955 C 156.179 443.239 162.748 444.795 170.007 444.795 C 193.774 444.795 224.887 427.856 256.346 398.471 C 287.804 427.683 318.917 444.449 342.684 444.449 C 349.944 444.449 356.512 442.894 362.216 439.609 C 386.501 425.609 391.946 381.964 379.415 327.171 C 432.998 310.664 468 284.045 468 256.043 Z  M 355.475 198.398 C 352.277 209.547 348.302 221.041 343.808 232.536 C 340.264 225.622 336.548 218.708 332.486 211.794 C 328.51 204.88 324.276 198.139 320.041 191.57 C 332.313 193.385 344.153 195.632 355.475 198.398 Z  M 315.892 290.44 C 309.151 302.108 302.237 313.17 295.064 323.455 C 282.187 324.578 269.137 325.183 256 325.183 C 242.95 325.183 229.9 324.578 217.109 323.541 C 209.936 313.256 202.935 302.28 196.194 290.7 C 189.626 279.378 183.662 267.883 178.218 256.302 C 183.576 244.722 189.626 233.141 196.108 221.819 C 202.849 210.152 209.763 199.089 216.936 188.805 C 229.813 187.681 242.863 187.076 256 187.076 C 269.05 187.076 282.1 187.681 294.891 188.718 C 302.064 199.003 309.065 209.979 315.806 221.56 C 322.374 232.881 328.338 244.376 333.782 255.957 C 328.338 267.538 322.374 279.119 315.892 290.44 Z  M 343.808 279.205 C 348.475 290.786 352.45 302.367 355.734 313.602 C 344.413 316.368 332.486 318.701 320.127 320.516 C 324.362 313.861 328.597 307.034 332.572 300.033 C 336.548 293.119 340.264 286.119 343.808 279.205 Z  M 256.173 371.42 C 248.135 363.124 240.098 353.876 232.147 343.764 C 239.925 344.11 247.876 344.369 255.914 344.369 C 264.038 344.369 272.075 344.196 279.94 343.764 C 272.161 353.876 264.124 363.124 256.173 371.42 Z  M 191.873 320.516 C 179.6 318.701 167.76 316.454 156.439 313.689 C 159.636 302.54 163.612 291.045 168.106 279.551 C 171.649 286.465 175.366 293.379 179.428 300.293 C 183.49 307.207 187.638 313.948 191.873 320.516 Z  M 255.741 140.666 C 263.778 148.963 271.816 158.21 279.767 168.322 C 271.989 167.976 264.038 167.717 256 167.717 C 247.876 167.717 239.839 167.89 231.974 168.322 C 239.752 158.21 247.79 148.963 255.741 140.666 Z  M 191.786 191.57 C 187.552 198.225 183.317 205.053 179.341 212.053 C 175.366 218.967 171.649 225.881 168.106 232.795 C 163.439 221.214 159.464 209.633 156.179 198.398 C 167.501 195.719 179.428 193.385 191.786 191.57 Z  M 113.572 299.774 C 82.978 286.724 63.186 269.612 63.186 256.043 C 63.186 242.475 82.978 225.276 113.572 212.312 C 121.004 209.115 129.128 206.263 137.512 203.583 C 142.438 220.523 148.92 238.153 156.957 256.216 C 149.006 274.192 142.611 291.737 137.771 308.589 C 129.215 305.91 121.091 302.972 113.572 299.774 Z  M 160.068 423.275 C 148.315 416.534 143.216 390.866 147.191 357.852 C 148.142 349.728 149.698 341.172 151.599 332.443 C 168.538 336.591 187.033 339.789 206.479 341.863 C 218.146 357.852 230.245 372.371 242.431 385.075 C 214.257 411.262 187.811 425.609 169.834 425.609 C 165.945 425.522 162.661 424.744 160.068 423.275 Z  M 365.068 357.419 C 369.13 390.434 364.117 416.102 352.45 422.929 C 349.857 424.485 346.487 425.177 342.511 425.177 C 324.621 425.177 298.089 410.916 269.914 384.903 C 282.014 372.198 294.113 357.765 305.608 341.777 C 325.14 339.702 343.635 336.505 360.574 332.27 C 362.562 340.999 364.117 349.382 365.068 357.419 Z  M 398.342 299.774 C 390.909 302.972 382.785 305.824 374.402 308.503 C 369.476 291.564 362.994 273.933 354.956 255.87 C 362.907 237.894 369.303 220.35 374.143 203.497 C 382.699 206.176 390.823 209.115 398.428 212.312 C 429.022 225.362 448.814 242.475 448.814 256.043 C 448.727 269.612 428.936 286.81 398.342 299.774 Z " fill="rgb(97,218,251)"/><path d=" M 169.402 67.551 L 169.402 67.551 L 169.402 67.551 L 169.402 67.551 Z " fill="rgb(97,218,251)"/><circle vector-effect="non-scaling-stroke" cx="255.9135752140236" cy="256.04321239298815" r="39.49612719119446" fill="rgb(97,218,251)"/></g></g></svg>